<svg id="SvgjsSvg1416" width="2391.333414713542" height="2100" xmlns="http://www.w3.org/2000/svg" version="1.1" xmlns:xlink="http://www.w3.org/1999/xlink" xmlns:svgjs="http://svgjs.com/svgjs"><defs id="SvgjsDefs1417"><marker id="SvgjsMarker1432" markerWidth="14" markerHeight="10" refX="10" refY="5" viewBox="0 0 14 10" orient="auto" markerUnits="userSpaceOnUse" stroke-dasharray="0,0"><path id="SvgjsPath1433" d="M0,0 L14,5 L0,10 L0,0" fill="#323232" stroke="#323232" stroke-width="1"></path></marker><marker id="SvgjsMarker1442" markerWidth="14" markerHeight="10" refX="10" refY="5" viewBox="0 0 14 10" orient="auto" markerUnits="userSpaceOnUse" stroke-dasharray="0,0"><path id="SvgjsPath1443" d="M0,0 L14,5 L0,10 L0,0" fill="#323232" stroke="#323232" stroke-width="1"></path></marker><marker id="SvgjsMarker1452" markerWidth="14" markerHeight="10" refX="10" refY="5" viewBox="0 0 14 10" orient="auto" markerUnits="userSpaceOnUse" stroke-dasharray="0,0"><path id="SvgjsPath1453" d="M0,0 L14,5 L0,10 L0,0" fill="#323232" stroke="#323232" stroke-width="1"></path></marker><marker id="SvgjsMarker1462" markerWidth="14" markerHeight="10" refX="10" refY="5" viewBox="0 0 14 10" orient="auto" markerUnits="userSpaceOnUse" stroke-dasharray="0,0"><path id="SvgjsPath1463" d="M0,0 L14,5 L0,10 L0,0" fill="#323232" stroke="#323232" stroke-width="1"></path></marker><marker id="SvgjsMarker1472" markerWidth="14" markerHeight="10" refX="10" refY="5" viewBox="0 0 14 10" orient="auto" markerUnits="userSpaceOnUse" stroke-dasharray="0,0"><path id="SvgjsPath1473" d="M0,0 L14,5 L0,10 L0,0" fill="#323232" stroke="#323232" stroke-width="1"></path></marker><marker id="SvgjsMarker1482" markerWidth="14" markerHeight="10" refX="10" refY="5" viewBox="0 0 14 10" orient="auto" markerUnits="userSpaceOnUse" stroke-dasharray="0,0"><path id="SvgjsPath1483" d="M0,0 L14,5 L0,10 L0,0" fill="#323232" stroke="#323232" stroke-width="1"></path></marker><marker id="SvgjsMarker1510" markerWidth="14" markerHeight="10" refX="4" refY="5" viewBox="0 0 14 10" orient="auto" markerUnits="userSpaceOnUse" stroke-dasharray="0,0"><path id="SvgjsPath1511" d="M14,0 L0,5 L14,10 L14,0" fill="#323232" stroke="#323232" stroke-width="1"></path></marker><marker id="SvgjsMarker1512" markerWidth="14" markerHeight="10" refX="10" refY="5" viewBox="0 0 14 10" orient="auto" markerUnits="userSpaceOnUse" stroke-dasharray="0,0"><path id="SvgjsPath1513" d="M0,0 L14,5 L0,10 L0,0" fill="#323232" stroke="#323232" stroke-width="1"></path></marker><marker id="SvgjsMarker1534" markerWidth="14" markerHeight="10" refX="10" refY="5" viewBox="0 0 14 10" orient="auto" markerUnits="userSpaceOnUse" stroke-dasharray="0,0"><path id="SvgjsPath1535" d="M0,0 L14,5 L0,10 L0,0" fill="#323232" stroke="#323232" stroke-width="1"></path></marker><marker id="SvgjsMarker1544" markerWidth="14" markerHeight="10" refX="10" refY="5" viewBox="0 0 14 10" orient="auto" markerUnits="userSpaceOnUse" stroke-dasharray="0,0"><path id="SvgjsPath1545" d="M0,0 L14,5 L0,10 L0,0" fill="#323232" stroke="#323232" stroke-width="1"></path></marker><marker id="SvgjsMarker1554" markerWidth="14" markerHeight="10" refX="10" refY="5" viewBox="0 0 14 10" orient="auto" markerUnits="userSpaceOnUse" stroke-dasharray="0,0"><path id="SvgjsPath1555" d="M0,0 L14,5 L0,10 L0,0" fill="#323232" stroke="#323232" stroke-width="1"></path></marker><marker id="SvgjsMarker1564" markerWidth="14" markerHeight="10" refX="10" refY="5" viewBox="0 0 14 10" orient="auto" markerUnits="userSpaceOnUse" stroke-dasharray="0,0"><path id="SvgjsPath1565" d="M0,0 L14,5 L0,10 L0,0" fill="#323232" stroke="#323232" stroke-width="1"></path></marker><marker id="SvgjsMarker1582" markerWidth="14" markerHeight="10" refX="10" refY="5" viewBox="0 0 14 10" orient="auto" markerUnits="userSpaceOnUse" stroke-dasharray="0,0"><path id="SvgjsPath1583" d="M0,0 L14,5 L0,10 L0,0" fill="#323232" stroke="#323232" stroke-width="1"></path></marker><marker id="SvgjsMarker1586" markerWidth="14" markerHeight="10" refX="10" refY="5" viewBox="0 0 14 10" orient="auto" markerUnits="userSpaceOnUse" stroke-dasharray="0,0"><path id="SvgjsPath1587" d="M0,0 L14,5 L0,10 L0,0" fill="#323232" stroke="#323232" stroke-width="1"></path></marker><marker id="SvgjsMarker1594" markerWidth="14" markerHeight="10" refX="10" refY="5" viewBox="0 0 14 10" orient="auto" markerUnits="userSpaceOnUse" stroke-dasharray="0,0"><path id="SvgjsPath1595" d="M0,0 L14,5 L0,10 L0,0" fill="#323232" stroke="#323232" stroke-width="1"></path></marker><marker id="SvgjsMarker1616" markerWidth="14" markerHeight="10" refX="10" refY="5" viewBox="0 0 14 10" orient="auto" markerUnits="userSpaceOnUse" stroke-dasharray="0,0"><path id="SvgjsPath1617" d="M0,0 L14,5 L0,10 L0,0" fill="#323232" stroke="#323232" stroke-width="1"></path></marker><marker id="SvgjsMarker1626" markerWidth="14" markerHeight="10" refX="10" refY="5" viewBox="0 0 14 10" orient="auto" markerUnits="userSpaceOnUse" stroke-dasharray="0,0"><path id="SvgjsPath1627" d="M0,0 L14,5 L0,10 L0,0" fill="#323232" stroke="#323232" stroke-width="1"></path></marker><marker id="SvgjsMarker1642" markerWidth="14" markerHeight="10" refX="10" refY="5" viewBox="0 0 14 10" orient="auto" markerUnits="userSpaceOnUse" stroke-dasharray="0,0"><path id="SvgjsPath1643" d="M0,0 L14,5 L0,10 L0,0" fill="#323232" stroke="#323232" stroke-width="1"></path></marker><marker id="SvgjsMarker1666" markerWidth="14" markerHeight="10" refX="10" refY="5" viewBox="0 0 14 10" orient="auto" markerUnits="userSpaceOnUse" stroke-dasharray="0,0"><path id="SvgjsPath1667" d="M0,0 L14,5 L0,10 L0,0" fill="#323232" stroke="#323232" stroke-width="1"></path></marker><marker id="SvgjsMarker1670" markerWidth="14" markerHeight="10" refX="10" refY="5" viewBox="0 0 14 10" orient="auto" markerUnits="userSpaceOnUse" stroke-dasharray="0,0"><path id="SvgjsPath1671" d="M0,0 L14,5 L0,10 L0,0" fill="#323232" stroke="#323232" stroke-width="1"></path></marker><marker id="SvgjsMarker1678" markerWidth="14" markerHeight="10" refX="10" refY="5" viewBox="0 0 14 10" orient="auto" markerUnits="userSpaceOnUse" stroke-dasharray="0,0"><path id="SvgjsPath1679" d="M0,0 L14,5 L0,10 L0,0" fill="#323232" stroke="#323232" stroke-width="1"></path></marker><marker id="SvgjsMarker1686" markerWidth="14" markerHeight="10" refX="10" refY="5" viewBox="0 0 14 10" orient="auto" markerUnits="userSpaceOnUse" stroke-dasharray="0,0"><path id="SvgjsPath1687" d="M0,0 L14,5 L0,10 L0,0" fill="#323232" stroke="#323232" stroke-width="1"></path></marker><marker id="SvgjsMarker1694" markerWidth="14" markerHeight="10" refX="10" refY="5" viewBox="0 0 14 10" orient="auto" markerUnits="userSpaceOnUse" stroke-dasharray="0,0"><path id="SvgjsPath1695" d="M0,0 L14,5 L0,10 L0,0" fill="#323232" stroke="#323232" stroke-width="1"></path></marker><marker id="SvgjsMarker1706" markerWidth="14" markerHeight="10" refX="10" refY="5" viewBox="0 0 14 10" orient="auto" markerUnits="userSpaceOnUse" stroke-dasharray="0,0"><path id="SvgjsPath1707" d="M0,0 L14,5 L0,10 L0,0" fill="#323232" stroke="#323232" stroke-width="1"></path></marker><marker id="SvgjsMarker1710" markerWidth="14" markerHeight="10" refX="10" refY="5" viewBox="0 0 14 10" orient="auto" markerUnits="userSpaceOnUse" stroke-dasharray="0,0"><path id="SvgjsPath1711" d="M0,0 L14,5 L0,10 L0,0" fill="#323232" stroke="#323232" stroke-width="1"></path></marker><marker id="SvgjsMarker1714" markerWidth="14" markerHeight="10" refX="10" refY="5" viewBox="0 0 14 10" orient="auto" markerUnits="userSpaceOnUse" stroke-dasharray="0,0"><path id="SvgjsPath1715" d="M0,0 L14,5 L0,10 L0,0" fill="#323232" stroke="#323232" stroke-width="1"></path></marker><marker id="SvgjsMarker1722" markerWidth="14" markerHeight="10" refX="10" refY="5" viewBox="0 0 14 10" orient="auto" markerUnits="userSpaceOnUse" stroke-dasharray="0,0"><path id="SvgjsPath1723" d="M0,0 L14,5 L0,10 L0,0" fill="#323232" stroke="#323232" stroke-width="1"></path></marker><marker id="SvgjsMarker1726" markerWidth="14" markerHeight="10" refX="10" refY="5" viewBox="0 0 14 10" orient="auto" markerUnits="userSpaceOnUse" stroke-dasharray="0,0"><path id="SvgjsPath1727" d="M0,0 L14,5 L0,10 L0,0" fill="#323232" stroke="#323232" stroke-width="1"></path></marker><marker id="SvgjsMarker1730" markerWidth="14" markerHeight="10" refX="10" refY="5" viewBox="0 0 14 10" orient="auto" markerUnits="userSpaceOnUse" stroke-dasharray="0,0"><path id="SvgjsPath1731" d="M0,0 L14,5 L0,10 L0,0" fill="#323232" stroke="#323232" stroke-width="1"></path></marker><marker id="SvgjsMarker1744" markerWidth="14" markerHeight="10" refX="10" refY="5" viewBox="0 0 14 10" orient="auto" markerUnits="userSpaceOnUse" stroke-dasharray="0,0"><path id="SvgjsPath1745" d="M0,0 L14,5 L0,10 L0,0" fill="#323232" stroke="#323232" stroke-width="1"></path></marker><marker id="SvgjsMarker1754" markerWidth="14" markerHeight="10" refX="10" refY="5" viewBox="0 0 14 10" orient="auto" markerUnits="userSpaceOnUse" stroke-dasharray="0,0"><path id="SvgjsPath1755" d="M0,0 L14,5 L0,10 L0,0" fill="#323232" stroke="#323232" stroke-width="1"></path></marker><marker id="SvgjsMarker1766" markerWidth="14" markerHeight="10" refX="10" refY="5" viewBox="0 0 14 10" orient="auto" markerUnits="userSpaceOnUse" stroke-dasharray="0,0"><path id="SvgjsPath1767" d="M0,0 L14,5 L0,10 L0,0" fill="#323232" stroke="#323232" stroke-width="1"></path></marker><marker id="SvgjsMarker1776" markerWidth="14" markerHeight="10" refX="10" refY="5" viewBox="0 0 14 10" orient="auto" markerUnits="userSpaceOnUse" stroke-dasharray="0,0"><path id="SvgjsPath1777" d="M0,0 L14,5 L0,10 L0,0" fill="#323232" stroke="#323232" stroke-width="1"></path></marker><marker id="SvgjsMarker1786" markerWidth="14" markerHeight="10" refX="10" refY="5" viewBox="0 0 14 10" orient="auto" markerUnits="userSpaceOnUse" stroke-dasharray="0,0"><path id="SvgjsPath1787" d="M0,0 L14,5 L0,10 L0,0" fill="#323232" stroke="#323232" stroke-width="1"></path></marker><marker id="SvgjsMarker1798" markerWidth="14" markerHeight="10" refX="10" refY="5" viewBox="0 0 14 10" orient="auto" markerUnits="userSpaceOnUse" stroke-dasharray="0,0"><path id="SvgjsPath1799" d="M0,0 L14,5 L0,10 L0,0" fill="#323232" stroke="#323232" stroke-width="1"></path></marker><marker id="SvgjsMarker1802" markerWidth="14" markerHeight="10" refX="10" refY="5" viewBox="0 0 14 10" orient="auto" markerUnits="userSpaceOnUse" stroke-dasharray="0,0"><path id="SvgjsPath1803" d="M0,0 L14,5 L0,10 L0,0" fill="#323232" stroke="#323232" stroke-width="1"></path></marker><marker id="SvgjsMarker1806" markerWidth="14" markerHeight="10" refX="10" refY="5" viewBox="0 0 14 10" orient="auto" markerUnits="userSpaceOnUse" stroke-dasharray="0,0"><path id="SvgjsPath1807" d="M0,0 L14,5 L0,10 L0,0" fill="#323232" stroke="#323232" stroke-width="1"></path></marker><marker id="SvgjsMarker1810" markerWidth="14" markerHeight="10" refX="10" refY="5" viewBox="0 0 14 10" orient="auto" markerUnits="userSpaceOnUse" stroke-dasharray="0,0"><path id="SvgjsPath1811" d="M0,0 L14,5 L0,10 L0,0" fill="#323232" stroke="#323232" stroke-width="1"></path></marker><marker id="SvgjsMarker1814" markerWidth="14" markerHeight="10" refX="10" refY="5" viewBox="0 0 14 10" orient="auto" markerUnits="userSpaceOnUse" stroke-dasharray="0,0"><path id="SvgjsPath1815" d="M0,0 L14,5 L0,10 L0,0" fill="#323232" stroke="#323232" stroke-width="1"></path></marker><marker id="SvgjsMarker1818" markerWidth="14" markerHeight="10" refX="10" refY="5" viewBox="0 0 14 10" orient="auto" markerUnits="userSpaceOnUse" stroke-dasharray="0,0"><path id="SvgjsPath1819" d="M0,0 L14,5 L0,10 L0,0" fill="#323232" stroke="#323232" stroke-width="1"></path></marker></defs><g id="SvgjsG1418" transform="translate(775,25)"><path id="SvgjsPath1419" d="M 33.333333333333336 0L 266.6666666666667 0C 311.1111111111111 0 311.1111111111111 100 266.6666666666667 100L 33.333333333333336 100C -11.111111111111112 100 -11.111111111111112 0 33.333333333333336 0Z" stroke="rgba(33,41,48,1)" stroke-width="2" fill-opacity="1" fill="#ffffff"></path><g id="SvgjsG1420"><text id="SvgjsText1421" font-family="&quot;Comic Sans MS&quot;" text-anchor="middle" font-size="20px" width="280px" fill="#323232" font-weight="400" align="middle" lineHeight="125%" anchor="middle" family="&quot;Comic Sans MS&quot;" size="20px" weight="400" font-style="" opacity="1" y="32" transform="rotate(0)"><tspan id="SvgjsTspan1422" dy="25" x="150"><tspan id="SvgjsTspan1423" style="text-decoration:;">require("module-identifier")</tspan></tspan></text></g></g><g id="SvgjsG1424" transform="translate(800,200)"><path id="SvgjsPath1425" d="M 23.333333333333332 0L 250 0L 226.66666666666666 70L 0 70L 23.333333333333332 0Z" stroke="rgba(33,41,48,1)" stroke-width="2" fill-opacity="1" fill="#f44336"></path><g id="SvgjsG1426"><text id="SvgjsText1427" font-family="&quot;Comic Sans MS&quot;" text-anchor="middle" font-size="20px" width="175px" fill="#323232" font-weight="400" align="middle" lineHeight="125%" anchor="middle" family="&quot;Comic Sans MS&quot;" size="20px" weight="400" font-style="" opacity="1" y="17" transform="rotate(0)"><tspan id="SvgjsTspan1428" dy="25" x="125"><tspan id="SvgjsTspan1429" style="text-decoration:;">module-identifier</tspan></tspan></text></g></g><g id="SvgjsG1430"><path id="SvgjsPath1431" d="M925 126L925 162.5L925 162.5L925 196.4" stroke="#323232" stroke-width="2" fill="none" marker-end="url(#SvgjsMarker1432)"></path></g><g id="SvgjsG1434" transform="translate(825,345)"><path id="SvgjsPath1435" d="M 0 0L 200 0L 200 70L 0 70Z" stroke="rgba(33,41,48,1)" stroke-width="2" fill-opacity="1" fill="#ffffff"></path><g id="SvgjsG1436"><text id="SvgjsText1437" font-family="&quot;Comic Sans MS&quot;" text-anchor="middle" font-size="20px" width="180px" fill="#323232" font-weight="400" align="middle" lineHeight="125%" anchor="middle" family="&quot;Comic Sans MS&quot;" size="20px" weight="400" font-style="" opacity="1" y="17" transform="rotate(0)"><tspan id="SvgjsTspan1438" dy="25" x="100"><tspan id="SvgjsTspan1439" style="text-decoration:;">Path Resolve</tspan></tspan></text></g></g><g id="SvgjsG1440"><path id="SvgjsPath1441" d="M925 271L925 307.5L925 307.5L925 341.4" stroke="#323232" stroke-width="2" fill="none" marker-end="url(#SvgjsMarker1442)"></path></g><g id="SvgjsG1444" transform="translate(525,490)"><path id="SvgjsPath1445" d="M 23.333333333333332 0L 250 0L 226.66666666666666 70L 0 70L 23.333333333333332 0Z" stroke="rgba(33,41,48,1)" stroke-width="2" fill-opacity="1" fill="#4caf50"></path><g id="SvgjsG1446"><text id="SvgjsText1447" font-family="&quot;Comic Sans MS&quot;" text-anchor="middle" font-size="20px" width="175px" fill="#323232" font-weight="400" align="middle" lineHeight="125%" anchor="middle" family="&quot;Comic Sans MS&quot;" size="20px" weight="400" font-style="" opacity="1" y="17" transform="rotate(0)"><tspan id="SvgjsTspan1448" dy="25" x="125"><tspan id="SvgjsTspan1449" style="text-decoration:;">Core Module</tspan></tspan></text></g></g><g id="SvgjsG1450"><path id="SvgjsPath1451" d="M925 416L925 452.5L650 452.5L650 486.4" stroke="#323232" stroke-width="2" fill="none" marker-end="url(#SvgjsMarker1452)"></path></g><g id="SvgjsG1454" transform="translate(800,490)"><path id="SvgjsPath1455" d="M 23.333333333333332 0L 250 0L 226.66666666666666 70L 0 70L 23.333333333333332 0Z" stroke="rgba(33,41,48,1)" stroke-width="2" fill-opacity="1" fill="#388e3c"></path><g id="SvgjsG1456"><text id="SvgjsText1457" font-family="&quot;Comic Sans MS&quot;" text-anchor="middle" font-size="20px" width="175px" fill="#323232" font-weight="400" align="middle" lineHeight="125%" anchor="middle" family="&quot;Comic Sans MS&quot;" size="20px" weight="400" font-style="" opacity="1" y="17" transform="rotate(0)"><tspan id="SvgjsTspan1458" dy="25" x="125"><tspan id="SvgjsTspan1459" style="text-decoration:;">File Module</tspan></tspan></text></g></g><g id="SvgjsG1460"><path id="SvgjsPath1461" d="M925 416L925 452.5L925 452.5L925 486.4" stroke="#323232" stroke-width="2" fill="none" marker-end="url(#SvgjsMarker1462)"></path></g><g id="SvgjsG1464" transform="translate(1075,490)"><path id="SvgjsPath1465" d="M 23.333333333333332 0L 250 0L 226.66666666666666 70L 0 70L 23.333333333333332 0Z" stroke="rgba(33,41,48,1)" stroke-width="2" fill-opacity="1" fill="#1b5e20"></path><g id="SvgjsG1466"><text id="SvgjsText1467" font-family="&quot;Comic Sans MS&quot;" text-anchor="middle" font-size="20px" width="175px" fill="#323232" font-weight="400" align="middle" lineHeight="125%" anchor="middle" family="&quot;Comic Sans MS&quot;" size="20px" weight="400" font-style="" opacity="1" y="17" transform="rotate(0)"><tspan id="SvgjsTspan1468" dy="25" x="125"><tspan id="SvgjsTspan1469" style="text-decoration:;">Custom Module</tspan></tspan></text></g></g><g id="SvgjsG1470"><path id="SvgjsPath1471" d="M925 416L925 452.5L1200 452.5L1200 486.4" stroke="#323232" stroke-width="2" fill="none" marker-end="url(#SvgjsMarker1472)"></path></g><g id="SvgjsG1474" transform="translate(825,635)"><path id="SvgjsPath1475" d="M 0 0L 200 0L 200 70L 0 70Z" stroke="rgba(33,41,48,1)" stroke-width="2" fill-opacity="1" fill="#ffffff"></path><g id="SvgjsG1476"><text id="SvgjsText1477" font-family="楷体" text-anchor="middle" font-size="22px" width="180px" fill="#323232" font-weight="700" align="middle" lineHeight="125%" anchor="middle" family="楷体" size="22px" weight="700" font-style="" opacity="1" y="15.25" transform="rotate(0)"><tspan id="SvgjsTspan1478" dy="27" x="100"><tspan id="SvgjsTspan1479" style="text-decoration:;">定位</tspan></tspan></text></g></g><g id="SvgjsG1480"><path id="SvgjsPath1481" d="M925 561L925 597.5L925 597.5L925 631.4" stroke="#323232" stroke-width="2" fill="none" marker-end="url(#SvgjsMarker1482)"></path></g><g id="SvgjsG1484" transform="translate(825,1095)"><path id="SvgjsPath1485" d="M 0 0L 200 0L 200 70L 0 70Z" stroke="rgba(33,41,48,1)" stroke-width="2" fill-opacity="1" fill="#ffffff"></path><g id="SvgjsG1486"><text id="SvgjsText1487" font-family="&quot;Comic Sans MS&quot;" text-anchor="middle" font-size="20px" width="180px" fill="#323232" font-weight="400" align="middle" lineHeight="125%" anchor="middle" family="&quot;Comic Sans MS&quot;" size="20px" weight="400" font-style="" opacity="1" y="17" transform="rotate(0)"><tspan id="SvgjsTspan1488" dy="25" x="100"><tspan id="SvgjsTspan1489" style="text-decoration:;">Extension Resolve</tspan></tspan></text></g></g><g id="SvgjsG1490" transform="translate(825,1975)"><path id="SvgjsPath1491" d="M 30 0L 183.33333333333334 0C 204.54545454545453 0 204.54545454545453 100 183.33333333333334 100L 30 100C -10 100 -10 0 30 0ZM 183.33333333333334 0C 162.5 0 162.5 100 183.33333333333334 100C 162.5 100 162.5 0 183.33333333333334 0" stroke="rgba(33,41,48,1)" stroke-width="2" fill-opacity="1" fill="#ffffff"></path><g id="SvgjsG1492"><text id="SvgjsText1493" font-family="&quot;Comic Sans MS&quot;" text-anchor="middle" font-size="20px" width="160px" fill="#323232" font-weight="400" align="middle" lineHeight="125%" anchor="middle" family="&quot;Comic Sans MS&quot;" size="20px" weight="400" font-style="" opacity="1" y="32" transform="rotate(0)"><tspan id="SvgjsTspan1494" dy="25" x="80"><tspan id="SvgjsTspan1495" style="text-decoration:;">Module Cache</tspan></tspan></text></g></g><g id="SvgjsG1496" transform="translate(775,1775)"><path id="SvgjsPath1497" d="M 33.333333333333336 0L 266.6666666666667 0C 311.1111111111111 0 311.1111111111111 100 266.6666666666667 100L 33.333333333333336 100C -11.111111111111112 100 -11.111111111111112 0 33.333333333333336 0Z" stroke="rgba(33,41,48,1)" stroke-width="2" fill-opacity="1" fill="#ffffff"></path><g id="SvgjsG1498"><text id="SvgjsText1499" font-family="&quot;Comic Sans MS&quot;" text-anchor="middle" font-size="20px" width="280px" fill="#323232" font-weight="400" align="middle" lineHeight="125%" anchor="middle" family="&quot;Comic Sans MS&quot;" size="20px" weight="400" font-style="" opacity="1" y="32" transform="rotate(0)"><tspan id="SvgjsTspan1500" dy="25" x="150"><tspan id="SvgjsTspan1501" style="text-decoration:;">result</tspan></tspan></text></g></g><g id="SvgjsG1502" transform="translate(25,475)"><path id="SvgjsPath1503" d="M 30 0L 183.33333333333334 0C 204.54545454545453 0 204.54545454545453 100 183.33333333333334 100L 30 100C -10 100 -10 0 30 0ZM 183.33333333333334 0C 162.5 0 162.5 100 183.33333333333334 100C 162.5 100 162.5 0 183.33333333333334 0" stroke="rgba(33,41,48,1)" stroke-width="2" fill-opacity="1" fill="#ffffff"></path><g id="SvgjsG1504"><text id="SvgjsText1505" font-family="&quot;Comic Sans MS&quot;" text-anchor="middle" font-size="20px" width="160px" fill="#323232" font-weight="400" align="middle" lineHeight="125%" anchor="middle" family="&quot;Comic Sans MS&quot;" size="20px" weight="400" font-style="" opacity="1" y="32" transform="rotate(0)"><tspan id="SvgjsTspan1506" dy="25" x="80"><tspan id="SvgjsTspan1507" style="text-decoration:;">Memory Cache</tspan></tspan></text></g></g><g id="SvgjsG1508"><path id="SvgjsPath1509" d="M533.0666666666666 525L380.8333333333333 525L380.8333333333333 525L228.60000000000002 525" stroke="#323232" stroke-width="2" fill="none" marker-start="url(#SvgjsMarker1510)" marker-end="url(#SvgjsMarker1512)"></path><rect id="SvgjsRect1514" width="46" height="25" x="357.8333333333333" y="512.5" fill="#ffffff"></rect><text id="SvgjsText1515" font-family="&quot;Comic Sans MS&quot;" text-anchor="middle" font-size="20px" width="46px" fill="#323232" font-weight="400" align="top" lineHeight="25px" anchor="middle" family="&quot;Comic Sans MS&quot;" size="20px" weight="400" font-style="" opacity="1" y="507" transform="rotate(0)"><tspan id="SvgjsTspan1516" dy="25" x="380.8333333333333"><tspan id="SvgjsTspan1517" style="text-decoration:;">Read</tspan></tspan></text></g><g id="SvgjsG1518" transform="translate(1926.25,680)"><path id="SvgjsPath1519" d="M 0 50C 0 -16.666666666666668 180 -16.666666666666668 180 50Q 176.4 98 90 100Q 60 100 30 90L 0 100L 21.060000000000002 85.7Q 0 70 0 50" stroke="rgba(33,41,48,1)" stroke-width="2" fill-opacity="1" fill="#ffffff"></path><g id="SvgjsG1520"><text id="SvgjsText1521" font-family="楷体" text-anchor="middle" font-size="22px" width="160px" fill="#323232" font-weight="700" align="middle" lineHeight="125%" anchor="middle" family="楷体" size="22px" weight="700" font-style="" opacity="1" y="16.75" transform="rotate(0)"><tspan id="SvgjsTspan1522" dy="27" x="90"><tspan id="SvgjsTspan1523" style="text-decoration:;">类似原型链查找</tspan></tspan><tspan id="SvgjsTspan1524" dy="27" x="90"><tspan id="SvgjsTspan1525" style="text-decoration:;">逐级向上</tspan></tspan></text></g></g><g id="SvgjsG1526" transform="translate(525,1265)"><path id="SvgjsPath1527" d="M 23.333333333333332 0L 250 0L 226.66666666666666 70L 0 70L 23.333333333333332 0Z" stroke="rgba(33,41,48,1)" stroke-width="2" fill-opacity="1" fill="#4caf50"></path><g id="SvgjsG1528"><text id="SvgjsText1529" font-family="&quot;Comic Sans MS&quot;" text-anchor="middle" font-size="20px" width="175px" fill="#323232" font-weight="400" align="middle" lineHeight="125%" anchor="middle" family="&quot;Comic Sans MS&quot;" size="20px" weight="400" font-style="" opacity="1" y="17" transform="rotate(0)"><tspan id="SvgjsTspan1530" dy="25" x="125"><tspan id="SvgjsTspan1531" style="text-decoration:;">.js ①</tspan></tspan></text></g></g><g id="SvgjsG1532"><path id="SvgjsPath1533" d="M925 1165.9999999999977L925 1214.9999999999989L650 1214.9999999999989L650 1261.4" stroke="#323232" stroke-width="2" fill="none" marker-end="url(#SvgjsMarker1534)"></path></g><g id="SvgjsG1536" transform="translate(800,1265)"><path id="SvgjsPath1537" d="M 23.333333333333332 0L 250 0L 226.66666666666666 70L 0 70L 23.333333333333332 0Z" stroke="rgba(33,41,48,1)" stroke-width="2" fill-opacity="1" fill="#388e3c"></path><g id="SvgjsG1538"><text id="SvgjsText1539" font-family="&quot;Comic Sans MS&quot;" text-anchor="middle" font-size="20px" width="175px" fill="#323232" font-weight="400" align="middle" lineHeight="125%" anchor="middle" family="&quot;Comic Sans MS&quot;" size="20px" weight="400" font-style="" opacity="1" y="17" transform="rotate(0)"><tspan id="SvgjsTspan1540" dy="25" x="125"><tspan id="SvgjsTspan1541" style="text-decoration:;">.json ②</tspan></tspan></text></g></g><g id="SvgjsG1542"><path id="SvgjsPath1543" d="M925 1165.9999999999977L925 1214.9999999999989L925 1214.9999999999989L925 1261.4" stroke="#323232" stroke-width="2" fill="none" marker-end="url(#SvgjsMarker1544)"></path></g><g id="SvgjsG1546" transform="translate(1075,1265)"><path id="SvgjsPath1547" d="M 23.333333333333332 0L 250 0L 226.66666666666666 70L 0 70L 23.333333333333332 0Z" stroke="rgba(33,41,48,1)" stroke-width="2" fill-opacity="1" fill="#1b5e20"></path><g id="SvgjsG1548"><text id="SvgjsText1549" font-family="&quot;Comic Sans MS&quot;" text-anchor="middle" font-size="20px" width="175px" fill="#323232" font-weight="400" align="middle" lineHeight="125%" anchor="middle" family="&quot;Comic Sans MS&quot;" size="20px" weight="400" font-style="" opacity="1" y="17" transform="rotate(0)"><tspan id="SvgjsTspan1550" dy="25" x="125"><tspan id="SvgjsTspan1551" style="text-decoration:;">.node ③</tspan></tspan></text></g></g><g id="SvgjsG1552"><path id="SvgjsPath1553" d="M925 1165.9999999999977L925 1214.9999999999989L1200 1214.9999999999989L1200 1261.4" stroke="#323232" stroke-width="2" fill="none" marker-end="url(#SvgjsMarker1554)"></path></g><g id="SvgjsG1556" transform="translate(525,1095)"><path id="SvgjsPath1557" d="M 23.333333333333332 0L 250 0L 226.66666666666666 70L 0 70L 23.333333333333332 0Z" stroke="rgba(33,41,48,1)" stroke-width="2" fill-opacity="1" fill="#e57373"></path><g id="SvgjsG1558"><text id="SvgjsText1559" font-family="&quot;Comic Sans MS&quot;" text-anchor="middle" font-size="20px" width="175px" fill="#323232" font-weight="400" align="middle" lineHeight="125%" anchor="middle" family="&quot;Comic Sans MS&quot;" size="20px" weight="400" font-style="" opacity="1" y="17" transform="rotate(0)"><tspan id="SvgjsTspan1560" dy="25" x="125"><tspan id="SvgjsTspan1561" style="text-decoration:;">.xxx</tspan></tspan></text></g></g><g id="SvgjsG1562"><path id="SvgjsPath1563" d="M824 1129.9999999999995L794.1666666666667 1129.9999999999995L794.1666666666667 1129.9999999999995L766.9333333333334 1129.9999999999995" stroke="#323232" stroke-width="2" fill="none" marker-end="url(#SvgjsMarker1564)"></path></g><g id="SvgjsG1566" transform="translate(25,1095)"><path id="SvgjsPath1567" d="M 0 0L 200 0L 200 70L 0 70Z" stroke="rgba(33,41,48,1)" stroke-width="2" fill-opacity="1" fill="#ffffff"></path><g id="SvgjsG1568"><text id="SvgjsText1569" font-family="&quot;Comic Sans MS&quot;" text-anchor="middle" font-size="20px" width="180px" fill="#323232" font-weight="400" align="middle" lineHeight="125%" anchor="middle" family="&quot;Comic Sans MS&quot;" size="20px" weight="400" font-style="" opacity="1" y="4.5" transform="rotate(0)"><tspan id="SvgjsTspan1570" dy="25" x="100"><tspan id="SvgjsTspan1571" style="text-decoration:;">Custom Extension </tspan></tspan><tspan id="SvgjsTspan1572" dy="25" x="100"><tspan id="SvgjsTspan1573" style="text-decoration:;">Resolver</tspan></tspan></text></g></g><g id="SvgjsG1574" transform="translate(295,1080)"><path id="SvgjsPath1575" d="M 0 50L 90 0L 180 50L 90 100L 0 50Z" stroke="rgba(33,41,48,1)" stroke-width="2" fill-opacity="1" fill="#ffffff"></path><g id="SvgjsG1576"><text id="SvgjsText1577" font-family="&quot;Comic Sans MS&quot;" text-anchor="middle" font-size="20px" width="160px" fill="#323232" font-weight="400" align="middle" lineHeight="125%" anchor="middle" family="&quot;Comic Sans MS&quot;" size="20px" weight="400" font-style="" opacity="1" y="32" transform="rotate(0)"><tspan id="SvgjsTspan1578" dy="25" x="90"><tspan id="SvgjsTspan1579" style="text-decoration:;">Has Resolver ?</tspan></tspan></text></g></g><g id="SvgjsG1580"><path id="SvgjsPath1581" d="M535.6666666666666 1129.9999999999995L505.83333333333326 1129.9999999999995L505.83333333333326 1129.999999999999L478.6 1129.999999999999" stroke="#323232" stroke-width="2" fill="none" marker-end="url(#SvgjsMarker1582)"></path></g><g id="SvgjsG1584"><path id="SvgjsPath1585" d="M294 1129.999999999999L260 1129.999999999999L260 1129.9999999999995L228.60000000000002 1129.9999999999995" stroke="#323232" stroke-width="2" fill="none" marker-end="url(#SvgjsMarker1586)"></path><rect id="SvgjsRect1588" width="33" height="25" x="252" y="1117.499999999999" fill="#ffffff"></rect><text id="SvgjsText1589" font-family="&quot;Comic Sans MS&quot;" text-anchor="middle" font-size="20px" width="33px" fill="#323232" font-weight="400" align="top" lineHeight="25px" anchor="middle" family="&quot;Comic Sans MS&quot;" size="20px" weight="400" font-style="" opacity="1" y="1111.999999999999" transform="rotate(0)"><tspan id="SvgjsTspan1590" dy="25" x="268.5"><tspan id="SvgjsTspan1591" style="text-decoration:;">Yes</tspan></tspan></text></g><g id="SvgjsG1592"><path id="SvgjsPath1593" d="M385 1180.9999999999973L385 1300L533.0666666666666 1300" stroke="#323232" stroke-width="2" fill="none" marker-end="url(#SvgjsMarker1594)"></path><rect id="SvgjsRect1596" width="26" height="25" x="372" y="1233.2500000000014" fill="#ffffff"></rect><text id="SvgjsText1597" font-family="&quot;Comic Sans MS&quot;" text-anchor="middle" font-size="20px" width="26px" fill="#323232" font-weight="400" align="top" lineHeight="25px" anchor="middle" family="&quot;Comic Sans MS&quot;" size="20px" weight="400" font-style="" opacity="1" y="1227.7500000000014" transform="rotate(0)"><tspan id="SvgjsTspan1598" dy="25" x="385"><tspan id="SvgjsTspan1599" style="text-decoration:;">No</tspan></tspan></text></g><g id="SvgjsG1600" transform="translate(1425,490)"><path id="SvgjsPath1601" d="M 0 0L 200 0L 200 70L 0 70Z" stroke="rgba(33,41,48,1)" stroke-width="2" fill-opacity="1" fill="#ffffff"></path><g id="SvgjsG1602"><text id="SvgjsText1603" font-family="&quot;Comic Sans MS&quot;" text-anchor="middle" font-size="20px" width="180px" fill="#323232" font-weight="400" align="middle" lineHeight="125%" anchor="middle" family="&quot;Comic Sans MS&quot;" size="20px" weight="400" font-style="" opacity="1" y="17" transform="rotate(0)"><tspan id="SvgjsTspan1604" dy="25" x="100"><tspan id="SvgjsTspan1605" style="text-decoration:;">node_modules</tspan></tspan></text></g></g><g id="SvgjsG1606" transform="translate(1425,635)"><path id="SvgjsPath1607" d="M 0 0L 200 0L 200 70L 0 70Z" stroke="rgba(33,41,48,1)" stroke-width="2" fill-opacity="1" fill="#ffffff"></path><g id="SvgjsG1608"><text id="SvgjsText1609" font-family="&quot;Comic Sans MS&quot;" text-anchor="middle" font-size="20px" width="180px" fill="#323232" font-weight="400" align="middle" lineHeight="125%" anchor="middle" family="&quot;Comic Sans MS&quot;" size="20px" weight="400" font-style="" opacity="1" y="4.5" transform="rotate(0)"><tspan id="SvgjsTspan1610" dy="25" x="100"><tspan id="SvgjsTspan1611" style="text-decoration:;">parse</tspan></tspan><tspan id="SvgjsTspan1612" dy="25" x="100"><tspan id="SvgjsTspan1613" style="text-decoration:;">package.json</tspan></tspan></text></g></g><g id="SvgjsG1614"><path id="SvgjsPath1615" d="M1525 561L1525 597.5L1525 597.5L1525 631.4" stroke="#323232" stroke-width="2" fill="none" marker-end="url(#SvgjsMarker1616)"></path></g><g id="SvgjsG1618" transform="translate(1425,780)"><path id="SvgjsPath1619" d="M 0 0L 200 0L 200 70L 0 70Z" stroke="rgba(33,41,48,1)" stroke-width="2" fill-opacity="1" fill="#ffffff"></path><g id="SvgjsG1620"><text id="SvgjsText1621" font-family="&quot;Comic Sans MS&quot;" text-anchor="middle" font-size="20px" width="180px" fill="#323232" font-weight="400" align="middle" lineHeight="125%" anchor="middle" family="&quot;Comic Sans MS&quot;" size="20px" weight="400" font-style="" opacity="1" y="17" transform="rotate(0)"><tspan id="SvgjsTspan1622" dy="25" x="100"><tspan id="SvgjsTspan1623" style="text-decoration:;">package.main</tspan></tspan></text></g></g><g id="SvgjsG1624"><path id="SvgjsPath1625" d="M1525 706L1525 742.5L1525 742.5L1525 776.4" stroke="#323232" stroke-width="2" fill="none" marker-end="url(#SvgjsMarker1626)"></path><rect id="SvgjsRect1628" width="44" height="28" x="1503" y="727.1999999999999" fill="#ffffff"></rect><text id="SvgjsText1629" font-family="楷体" text-anchor="middle" font-size="22px" width="44px" fill="#323232" font-weight="700" align="top" lineHeight="28px" anchor="middle" family="楷体" size="22px" weight="700" font-style="" opacity="1" y="721.4499999999999" transform="rotate(0)"><tspan id="SvgjsTspan1630" dy="27" x="1525"><tspan id="SvgjsTspan1631" style="text-decoration:;">成功</tspan></tspan></text></g><g id="SvgjsG1632" transform="translate(1725,780)"><path id="SvgjsPath1633" d="M 0 0L 200 0L 200 70L 0 70Z" stroke="rgba(33,41,48,1)" stroke-width="2" fill-opacity="1" fill="#ffffff"></path><g id="SvgjsG1634"><text id="SvgjsText1635" font-family="&quot;Comic Sans MS&quot;" text-anchor="middle" font-size="20px" width="180px" fill="#323232" font-weight="400" align="middle" lineHeight="125%" anchor="middle" family="&quot;Comic Sans MS&quot;" size="20px" weight="400" font-style="" opacity="1" y="4.5" transform="rotate(0)"><tspan id="SvgjsTspan1636" dy="25" x="100"><tspan id="SvgjsTspan1637" style="text-decoration:;">parent </tspan></tspan><tspan id="SvgjsTspan1638" dy="25" x="100"><tspan id="SvgjsTspan1639" style="text-decoration:;">node_modules</tspan></tspan></text></g></g><g id="SvgjsG1640"><path id="SvgjsPath1641" d="M1825 779L1825 525L1628.6 525" stroke="#323232" stroke-width="2" fill="none" marker-end="url(#SvgjsMarker1642)"></path></g><g id="SvgjsG1644" transform="translate(1075,635)"><path id="SvgjsPath1645" d="M 23.333333333333332 0L 250 0L 226.66666666666666 70L 0 70L 23.333333333333332 0Z" stroke="rgba(33,41,48,1)" stroke-width="2" fill-opacity="1" fill="#ba68c8"></path><g id="SvgjsG1646"><text id="SvgjsText1647" font-family="楷体" text-anchor="middle" font-size="22px" width="175px" fill="#323232" font-weight="700" align="middle" lineHeight="125%" anchor="middle" family="楷体" size="22px" weight="700" font-style="" opacity="1" y="15.25" transform="rotate(0)"><tspan id="SvgjsTspan1648" dy="27" x="125"><tspan id="SvgjsTspan1649" style="text-decoration:;">目录</tspan></tspan></text></g></g><g id="SvgjsG1650" transform="translate(800,925)"><path id="SvgjsPath1651" d="M 23.333333333333332 0L 250 0L 226.66666666666666 70L 0 70L 23.333333333333332 0Z" stroke="rgba(33,41,48,1)" stroke-width="2" fill-opacity="1" fill="#ba68c8"></path><g id="SvgjsG1652"><text id="SvgjsText1653" font-family="楷体" text-anchor="middle" font-size="22px" width="175px" fill="#323232" font-weight="700" align="middle" lineHeight="125%" anchor="middle" family="楷体" size="22px" weight="700" font-style="" opacity="1" y="15.25" transform="rotate(0)"><tspan id="SvgjsTspan1654" dy="27" x="125"><tspan id="SvgjsTspan1655" style="text-decoration:;">文件</tspan></tspan></text></g></g><g id="SvgjsG1656" transform="translate(1425,925)"><path id="SvgjsPath1657" d="M 0 0L 200 0L 200 70L 0 70Z" stroke="rgba(33,41,48,1)" stroke-width="2" fill-opacity="1" fill="#ffffff"></path><g id="SvgjsG1658"><text id="SvgjsText1659" font-family="&quot;Comic Sans MS&quot;" text-anchor="middle" font-size="20px" width="180px" fill="#323232" font-weight="400" align="middle" lineHeight="125%" anchor="middle" family="&quot;Comic Sans MS&quot;" size="20px" weight="400" font-style="" opacity="1" y="4.5" transform="rotate(0)"><tspan id="SvgjsTspan1660" dy="25" x="100"><tspan id="SvgjsTspan1661" style="text-decoration:;">index</tspan></tspan><tspan id="SvgjsTspan1662" dy="25" x="100"><tspan id="SvgjsTspan1663" style="text-decoration:;">(.js/.json/.node)</tspan></tspan></text></g></g><g id="SvgjsG1664"><path id="SvgjsPath1665" d="M1314.3333333333333 525L1369.1666666666665 525L1369.1666666666665 525L1421.4 525" stroke="#323232" stroke-width="2" fill="none" marker-end="url(#SvgjsMarker1666)"></path></g><g id="SvgjsG1668"><path id="SvgjsPath1669" d="M1525 851L1525 887.5L1525 887.5L1525 921.4" stroke="#323232" stroke-width="2" fill="none" marker-end="url(#SvgjsMarker1670)"></path><rect id="SvgjsRect1672" width="44" height="28" x="1503" y="872.2" fill="#ffffff"></rect><text id="SvgjsText1673" font-family="楷体" text-anchor="middle" font-size="22px" width="44px" fill="#323232" font-weight="700" align="top" lineHeight="28px" anchor="middle" family="楷体" size="22px" weight="700" font-style="" opacity="1" y="866.45" transform="rotate(0)"><tspan id="SvgjsTspan1674" dy="27" x="1525"><tspan id="SvgjsTspan1675" style="text-decoration:;">失败</tspan></tspan></text></g><g id="SvgjsG1676"><path id="SvgjsPath1677" d="M1626 670L1670 670L1670 960L1628.6 960" stroke="#323232" stroke-width="2" fill="none" marker-end="url(#SvgjsMarker1678)"></path><rect id="SvgjsRect1680" width="44" height="28" x="1648" y="799.7" fill="#ffffff"></rect><text id="SvgjsText1681" font-family="楷体" text-anchor="middle" font-size="22px" width="44px" fill="#323232" font-weight="700" align="top" lineHeight="28px" anchor="middle" family="楷体" size="22px" weight="700" font-style="" opacity="1" y="793.95" transform="rotate(0)"><tspan id="SvgjsTspan1682" dy="27" x="1670"><tspan id="SvgjsTspan1683" style="text-decoration:;">失败</tspan></tspan></text></g><g id="SvgjsG1684"><path id="SvgjsPath1685" d="M1525 996L1525 1025L1825 1025L1825 853.6" stroke="#323232" stroke-width="2" fill="none" marker-end="url(#SvgjsMarker1686)"></path><rect id="SvgjsRect1688" width="44" height="28" x="1724.1999999999998" y="1011" fill="#ffffff"></rect><text id="SvgjsText1689" font-family="楷体" text-anchor="middle" font-size="22px" width="44px" fill="#323232" font-weight="700" align="top" lineHeight="28px" anchor="middle" family="楷体" size="22px" weight="700" font-style="" opacity="1" y="1005.25" transform="rotate(0)"><tspan id="SvgjsTspan1690" dy="27" x="1746.1999999999998"><tspan id="SvgjsTspan1691" style="text-decoration:;">失败</tspan></tspan></text></g><g id="SvgjsG1692"><path id="SvgjsPath1693" d="M1026 670L1055.8333333333335 670L1055.8333333333335 670L1083.0666666666668 670" stroke="#323232" stroke-width="2" fill="none" marker-end="url(#SvgjsMarker1694)"></path></g><g id="SvgjsG1696" transform="translate(1100,780)"><path id="SvgjsPath1697" d="M 0 0L 200 0L 200 70L 0 70Z" stroke="rgba(33,41,48,1)" stroke-width="2" fill-opacity="1" fill="#ffffff"></path><g id="SvgjsG1698"><text id="SvgjsText1699" font-family="&quot;Comic Sans MS&quot;" text-anchor="middle" font-size="20px" width="180px" fill="#323232" font-weight="400" align="middle" lineHeight="125%" anchor="middle" family="&quot;Comic Sans MS&quot;" size="20px" weight="400" font-style="" opacity="1" y="4.5" transform="rotate(0)"><tspan id="SvgjsTspan1700" dy="25" x="100"><tspan id="SvgjsTspan1701" style="text-decoration:;">index</tspan></tspan><tspan id="SvgjsTspan1702" dy="25" x="100"><tspan id="SvgjsTspan1703" style="text-decoration:;">(.js/.json/.node)</tspan></tspan></text></g></g><g id="SvgjsG1704"><path id="SvgjsPath1705" d="M1200 706L1200 742.5L1200 742.5L1200 776.4" stroke="#323232" stroke-width="2" fill="none" marker-end="url(#SvgjsMarker1706)"></path></g><g id="SvgjsG1708"><path id="SvgjsPath1709" d="M925 706L925 815L925 815L925 921.4" stroke="#323232" stroke-width="2" fill="none" marker-end="url(#SvgjsMarker1710)"></path></g><g id="SvgjsG1712"><path id="SvgjsPath1713" d="M1424 960L1231.6666666666665 960L1231.6666666666665 960L1041.9333333333332 960" stroke="#323232" stroke-width="2" fill="none" marker-end="url(#SvgjsMarker1714)"></path><rect id="SvgjsRect1716" width="44" height="28" x="1354" y="927" fill="#ffffff"></rect><text id="SvgjsText1717" font-family="楷体" text-anchor="middle" font-size="22px" width="44px" fill="#323232" font-weight="700" align="top" lineHeight="28px" anchor="middle" family="楷体" size="22px" weight="700" font-style="" opacity="1" y="921.25" transform="rotate(0)"><tspan id="SvgjsTspan1718" dy="27" x="1376"><tspan id="SvgjsTspan1719" style="text-decoration:;">成功</tspan></tspan></text></g><g id="SvgjsG1720"><path id="SvgjsPath1721" d="M1099 815L925 815L925 921.4" stroke="#323232" stroke-width="2" fill="none" marker-end="url(#SvgjsMarker1722)"></path></g><g id="SvgjsG1724"><path id="SvgjsPath1725" d="M925 996L925 1045L925 1045L925 1091.4" stroke="#323232" stroke-width="2" fill="none" marker-end="url(#SvgjsMarker1726)"></path></g><g id="SvgjsG1728"><path id="SvgjsPath1729" d="M1424 815L1331.0320512820513 815L1331.0320512820513 960L1041.9333333333332 960" stroke="#323232" stroke-width="2" fill="none" marker-end="url(#SvgjsMarker1730)"></path><rect id="SvgjsRect1732" width="44" height="28" x="1309.0320512820513" y="888" fill="#ffffff"></rect><text id="SvgjsText1733" font-family="楷体" text-anchor="middle" font-size="22px" width="44px" fill="#323232" font-weight="700" align="top" lineHeight="28px" anchor="middle" family="楷体" size="22px" weight="700" font-style="" opacity="1" y="882.25" transform="rotate(0)"><tspan id="SvgjsTspan1734" dy="27" x="1331.0320512820513"><tspan id="SvgjsTspan1735" style="text-decoration:;">成功</tspan></tspan></text></g><g id="SvgjsG1736" transform="translate(550,1435)"><path id="SvgjsPath1737" d="M 0 0L 200 0L 200 70L 0 70Z" stroke="rgba(33,41,48,1)" stroke-width="2" fill-opacity="1" fill="#ffffff"></path><g id="SvgjsG1738"><text id="SvgjsText1739" font-family="&quot;Comic Sans MS&quot;" text-anchor="middle" font-size="20px" width="180px" fill="#323232" font-weight="400" align="middle" lineHeight="125%" anchor="middle" family="&quot;Comic Sans MS&quot;" size="20px" weight="400" font-style="" opacity="1" y="17" transform="rotate(0)"><tspan id="SvgjsTspan1740" dy="25" x="100"><tspan id="SvgjsTspan1741" style="text-decoration:;">fs</tspan></tspan></text></g></g><g id="SvgjsG1742"><path id="SvgjsPath1743" d="M650 1336L650 1385L650 1385L650 1431.4" stroke="#323232" stroke-width="2" fill="none" marker-end="url(#SvgjsMarker1744)"></path></g><g id="SvgjsG1746" transform="translate(540,1605)"><path id="SvgjsPath1747" d="M 0 0L 220 0L 220 70L 0 70Z" stroke="rgba(33,41,48,1)" stroke-width="2" fill-opacity="1" fill="#ffffff"></path><g id="SvgjsG1748"><text id="SvgjsText1749" font-family="&quot;Comic Sans MS&quot;" text-anchor="middle" font-size="20px" width="200px" fill="#323232" font-weight="400" align="middle" lineHeight="125%" anchor="middle" family="&quot;Comic Sans MS&quot;" size="20px" weight="400" font-style="" opacity="1" y="17" transform="rotate(0)"><tspan id="SvgjsTspan1750" dy="25" x="110"><tspan id="SvgjsTspan1751" style="text-decoration:;">Module(Code)</tspan></tspan></text></g></g><g id="SvgjsG1752"><path id="SvgjsPath1753" d="M650 1506L650 1555L650 1555L650 1601.4" stroke="#323232" stroke-width="2" fill="none" marker-end="url(#SvgjsMarker1754)"></path></g><g id="SvgjsG1756" transform="translate(285,1475)"><path id="SvgjsPath1757" d="M 24 98C -20 70 8 49 18 42C 14.000000000000002 7 64 0 84 14C 100 -7 150 0 150 21C 190 14 206 42 190 77C 204 105 190 140 144 126C 134 144.20000000000002 94 144.20000000000002 84 126C 64 140 24 133 24 98Z" stroke="rgba(33,41,48,1)" stroke-width="2" fill-opacity="1" fill="#ffffff"></path><g id="SvgjsG1758"><text id="SvgjsText1759" font-family="楷体" text-anchor="middle" font-size="22px" width="180px" fill="#323232" font-weight="700" align="middle" lineHeight="125%" anchor="middle" family="楷体" size="22px" weight="700" font-style="" opacity="1" y="36.75" transform="rotate(0)"><tspan id="SvgjsTspan1760" dy="27" x="100"><tspan id="SvgjsTspan1761" style="text-decoration:;">对源代码进行包装</tspan></tspan><tspan id="SvgjsTspan1762" dy="27" x="100"><tspan id="SvgjsTspan1763" style="text-decoration:;">编译执行</tspan></tspan></text></g></g><g id="SvgjsG1764"><path id="SvgjsPath1765" d="M399 1616L399 1640L536.4 1640" stroke="#323232" stroke-width="2" fill="none" marker-end="url(#SvgjsMarker1766)"></path></g><g id="SvgjsG1768" transform="translate(825,1435)"><path id="SvgjsPath1769" d="M 0 0L 200 0L 200 70L 0 70Z" stroke="rgba(33,41,48,1)" stroke-width="2" fill-opacity="1" fill="#ffffff"></path><g id="SvgjsG1770"><text id="SvgjsText1771" font-family="&quot;Comic Sans MS&quot;" text-anchor="middle" font-size="20px" width="180px" fill="#323232" font-weight="400" align="middle" lineHeight="125%" anchor="middle" family="&quot;Comic Sans MS&quot;" size="20px" weight="400" font-style="" opacity="1" y="17" transform="rotate(0)"><tspan id="SvgjsTspan1772" dy="25" x="100"><tspan id="SvgjsTspan1773" style="text-decoration:;">fs</tspan></tspan></text></g></g><g id="SvgjsG1774"><path id="SvgjsPath1775" d="M925 1336L925 1385L925 1385L925 1431.4" stroke="#323232" stroke-width="2" fill="none" marker-end="url(#SvgjsMarker1776)"></path></g><g id="SvgjsG1778" transform="translate(815,1605)"><path id="SvgjsPath1779" d="M 0 0L 220 0L 220 70L 0 70Z" stroke="rgba(33,41,48,1)" stroke-width="2" fill-opacity="1" fill="#ffffff"></path><g id="SvgjsG1780"><text id="SvgjsText1781" font-family="&quot;Comic Sans MS&quot;" text-anchor="middle" font-size="20px" width="200px" fill="#323232" font-weight="400" align="middle" lineHeight="125%" anchor="middle" family="&quot;Comic Sans MS&quot;" size="20px" weight="400" font-style="" opacity="1" y="17" transform="rotate(0)"><tspan id="SvgjsTspan1782" dy="25" x="110"><tspan id="SvgjsTspan1783" style="text-decoration:;">JSON.parse(Code)</tspan></tspan></text></g></g><g id="SvgjsG1784"><path id="SvgjsPath1785" d="M925 1506L925 1555L925 1555L925 1601.4" stroke="#323232" stroke-width="2" fill="none" marker-end="url(#SvgjsMarker1786)"></path></g><g id="SvgjsG1788" transform="translate(1100,1435)"><path id="SvgjsPath1789" d="M 0 0L 200 0L 200 70L 0 70Z" stroke="rgba(33,41,48,1)" stroke-width="2" fill-opacity="1" fill="#ffffff"></path><g id="SvgjsG1790"><text id="SvgjsText1791" font-family="&quot;Comic Sans MS&quot;" text-anchor="middle" font-size="20px" width="180px" fill="#323232" font-weight="400" align="middle" lineHeight="125%" anchor="middle" family="&quot;Comic Sans MS&quot;" size="20px" weight="400" font-style="" opacity="1" y="4.5" transform="rotate(0)"><tspan id="SvgjsTspan1792" dy="25" x="100"><tspan id="SvgjsTspan1793" style="text-decoration:;">C/C++</tspan></tspan><tspan id="SvgjsTspan1794" dy="25" x="100"><tspan id="SvgjsTspan1795" style="text-decoration:;">dlopen()</tspan></tspan></text></g></g><g id="SvgjsG1796"><path id="SvgjsPath1797" d="M1200 1336L1200 1385L1200 1385L1200 1431.4" stroke="#323232" stroke-width="2" fill="none" marker-end="url(#SvgjsMarker1798)"></path></g><g id="SvgjsG1800"><path id="SvgjsPath1801" d="M650 1676L650 1825L771.4 1825" stroke="#323232" stroke-width="2" fill="none" marker-end="url(#SvgjsMarker1802)"></path></g><g id="SvgjsG1804"><path id="SvgjsPath1805" d="M925 1676L925 1725L925 1725L925 1771.4" stroke="#323232" stroke-width="2" fill="none" marker-end="url(#SvgjsMarker1806)"></path></g><g id="SvgjsG1808"><path id="SvgjsPath1809" d="M1200 1506L1200 1825L1078.6 1825" stroke="#323232" stroke-width="2" fill="none" marker-end="url(#SvgjsMarker1810)"></path></g><g id="SvgjsG1812"><path id="SvgjsPath1813" d="M925 1876L925 1925L925 1925L925 1971.4" stroke="#323232" stroke-width="2" fill="none" marker-end="url(#SvgjsMarker1814)"></path></g><g id="SvgjsG1816"><path id="SvgjsPath1817" d="M1039.3333333333333 235L2221.6666666666665 235L2221.6666666666665 2025L1028.6 2025" stroke="#323232" stroke-width="2" fill="none" marker-end="url(#SvgjsMarker1818)"></path><rect id="SvgjsRect1820" width="132" height="28" x="2155.6666666666665" y="1121.3666666666666" fill="#ffffff"></rect><text id="SvgjsText1821" font-family="楷体" text-anchor="middle" font-size="22px" width="132px" fill="#323232" font-weight="700" align="top" lineHeight="28px" anchor="middle" family="楷体" size="22px" weight="700" font-style="" opacity="1" y="1115.6166666666666" transform="rotate(0)"><tspan id="SvgjsTspan1822" dy="27" x="2221.6666666666665"><tspan id="SvgjsTspan1823" style="text-decoration:;">优先读取缓存</tspan></tspan></text></g></svg>